<svg width="41" height="41" viewBox="0 0 41 41" fill="none" xmlns="http://www.w3.org/2000/svg">
    <ellipse cx="20" cy="17.5" rx="12" ry="15.5" fill="white"/>
    <g filter="url(#filter0_d_0_1)">
        <circle cx="20.5" cy="19.5" r="16.5" fill="#0D3039"/>
    </g>
    <path d="M13.9332 18.774C13.4493 18.774 13.0148 19.1986 13.0148 19.7022C13.0198 20.2107 13.4543 20.6353 13.9282 20.6353L19.774 20.6353L19.774 26.4713C19.774 26.965 20.1986 27.3896 20.7022 27.3896C21.2108 27.3847 21.6305 26.965 21.6305 26.4713L21.6305 20.6353L27.4713 20.6304C27.965 20.6304 28.3946 20.2107 28.3897 19.7022C28.3897 19.1986 27.965 18.774 27.4713 18.774L21.6354 18.774L21.6305 12.9331C21.6354 12.4542 21.2108 12.0099 20.7022 12.0148C20.1986 12.0148 19.7691 12.4542 19.774 12.9331L19.7691 18.774L13.9332 18.774Z" fill="white"/>
    <defs>
        <filter id="filter0_d_0_1" x="0" y="0" width="41" height="41" filterUnits="userSpaceOnUse" color-interpolation-filters="sRGB">
            <feFlood flood-opacity="0" result="BackgroundImageFix"/>
            <feColorMatrix in="SourceAlpha" type="matrix" values="0 0 0 0 0 0 0 0 0 0 0 0 0 0 0 0 0 0 127 0" result="hardAlpha"/>
            <feOffset dy="1"/>
            <feGaussianBlur stdDeviation="2"/>
            <feComposite in2="hardAlpha" operator="out"/>
            <feColorMatrix type="matrix" values="0 0 0 0 0 0 0 0 0 0 0 0 0 0 0 0 0 0 0.25 0"/>
            <feBlend mode="normal" in2="BackgroundImageFix" result="effect1_dropShadow_0_1"/>
            <feBlend mode="normal" in="SourceGraphic" in2="effect1_dropShadow_0_1" result="shape"/>
        </filter>
    </defs>
</svg>