<svg width="77" height="34" viewBox="0 0 77 34" fill="none" xmlns="http://www.w3.org/2000/svg">
    <path d="M38.4693 5.82013L38.3422 5.8303L38.2151 5.84746L38.0752 5.87289L37.9379 5.90277L37.8108 5.93837C37.677 5.98158 37.5459 6.03252 37.418 6.09093L37.2991 6.15004L37.1821 6.21361L37.069 6.28544L36.9571 6.36426L36.8484 6.44754L36.7492 6.53398C36.6742 6.60771 36.6094 6.67128 36.5357 6.74756L36.4524 6.84673L36.3691 6.95416L36.2928 7.06157L36.2223 7.17346L36.1587 7.29106L36.0952 7.40991C36.0526 7.50145 36.0246 7.57391 35.9877 7.6699C35.9509 7.76588 35.9343 7.83773 35.9089 7.9299L35.8778 8.07101L35.8523 8.20959L35.8371 8.33671L35.8269 8.4683V8.75243C35.8326 8.84714 35.8409 8.92216 35.8523 9.01688C35.8638 9.11159 35.886 9.19612 35.9076 9.29211L35.9413 9.41925C35.9712 9.50951 36.0004 9.59152 36.0348 9.68051L36.0926 9.80763L36.1505 9.92651L36.2197 10.0479L36.2935 10.1623L36.3723 10.2742L36.4568 10.3842L36.5446 10.4834L36.6971 10.6416L36.7804 10.7192L36.8707 10.7955L36.9679 10.8692L37.0652 10.9328C37.109 10.9639 37.1497 10.9893 37.184 11.009L37.301 11.0771L37.4237 11.1406L37.5508 11.1959L37.6849 11.2468L37.8121 11.2881L37.9437 11.325L38.0778 11.3548L38.2176 11.379L38.3492 11.3974L38.4763 11.4057H38.7605L38.8921 11.3974C38.9868 11.3847 39.07 11.372 39.1635 11.3548L39.2963 11.325L39.4317 11.2868L39.5589 11.2442L39.686 11.1978L39.8131 11.14L39.9333 11.0809L40.049 11.0173L40.1659 10.9423L40.2861 10.8558L40.389 10.7783L40.4965 10.6848C40.5683 10.6143 40.6338 10.5495 40.7043 10.477C40.7609 10.4134 40.8086 10.3499 40.8626 10.2806L40.9389 10.1693C40.9669 10.1312 40.9923 10.0918 41.0164 10.0517L41.08 9.93477L41.1436 9.80763L41.1989 9.68051L41.251 9.54639C41.2927 9.41888 41.3275 9.28922 41.3553 9.15798L41.3807 9.01688L41.3991 8.88401L41.4093 8.75689V8.47466L41.3991 8.3418C41.3864 8.24835 41.3737 8.16381 41.3553 8.07037C41.3479 8.02323 41.3379 7.97654 41.3254 7.93052L41.293 7.80784L41.2478 7.67054L41.1995 7.54914L41.1429 7.422L41.0794 7.29932C41.0622 7.26372 41.0387 7.22431 41.0158 7.18044L40.9421 7.06475L40.8632 6.95352L40.7755 6.84164C40.7546 6.81495 40.7234 6.77807 40.684 6.73421C40.6134 6.66048 40.5569 6.60009 40.478 6.52954L40.3789 6.44626C40.3479 6.41862 40.3155 6.39272 40.2816 6.3687C40.1628 6.2867 40.0598 6.21869 39.9339 6.14813L39.8138 6.08902C39.7235 6.04833 39.6441 6.01718 39.5525 5.98159C39.5111 5.96496 39.4686 5.95115 39.4254 5.94027L39.2983 5.9034L39.1609 5.87352L39.0198 5.8481L38.8927 5.83093L38.7611 5.82077L38.4693 5.82013Z" fill="white"/>
    <path d="M26.2407 13.6731C26.3182 13.5644 26.4002 13.4582 26.4949 13.3425V13.3019L26.6392 13.162C27.0093 12.7857 27.4228 12.4547 27.8712 12.1761C28.3401 11.8997 28.8511 11.7022 29.384 11.5913L29.3955 11.5869C29.5633 11.5544 29.7317 11.5315 29.8957 11.5118C30.0724 11.4921 30.218 11.4794 30.3649 11.468L30.4411 11.461L30.5683 11.4693L30.827 11.4845C32.0571 11.5382 33.2277 12.0284 34.1291 12.8671C35.0305 13.7059 35.6036 14.8383 35.7457 16.0613L35.7642 16.2704L35.7743 16.4694L35.7801 16.6658V16.8565L35.7686 17.0599L35.7489 17.255C35.7338 17.4034 35.7087 17.5506 35.6739 17.6956C35.4341 18.7565 34.8827 19.7217 34.0905 20.4671C33.3131 21.1967 32.3206 21.6556 31.2611 21.7752C31.1442 21.7879 31.0298 21.7981 30.9179 21.8064L30.518 21.8305L30.4373 21.8248C30.279 21.8121 30.1239 21.7994 29.9358 21.7784C29.7591 21.76 29.5811 21.7345 29.4006 21.7009H29.3961C28.8571 21.5949 28.3408 21.3955 27.8705 21.1116C27.4219 20.8312 27.0076 20.4992 26.6361 20.1225L26.4949 19.9827V19.9445C26.4269 19.8638 26.3608 19.7818 26.2985 19.6973C26.1976 19.562 26.1038 19.4215 26.0176 19.2764L25.9229 19.1067L25.8408 18.9472L25.6883 18.6179C25.6247 18.4688 25.5692 18.3165 25.5217 18.1615C25.4729 18.0127 25.4347 17.8606 25.4073 17.7064L25.3749 17.5309L25.3482 17.3402L25.3241 17.1495C25.3171 17.0758 25.3056 16.9995 25.2999 16.9264C25.2897 16.7936 25.2846 16.7217 25.2846 16.6397C25.2916 16.4675 25.3043 16.3079 25.3215 16.1369L25.3469 15.9418L25.3749 15.7454C25.3865 15.6611 25.4035 15.5776 25.4258 15.4955C25.4722 15.3544 25.502 15.2597 25.5287 15.1694C25.6144 14.8663 25.7265 14.5713 25.8637 14.2878L26.0671 13.867L26.097 13.881C26.1453 13.8072 26.1917 13.7386 26.2413 13.6693L26.2407 13.6731ZM42.396 13.6737C42.4736 13.565 42.5556 13.4589 42.6503 13.3432V13.3025L42.7927 13.1627C43.1635 12.7866 43.5774 12.4557 44.0259 12.1768C44.4948 11.9004 45.0059 11.7029 45.5387 11.5919H45.5502C45.7199 11.5582 45.8864 11.5341 46.0504 11.5157C46.2272 11.496 46.374 11.4832 46.5196 11.4718L46.6524 11.4604L46.723 11.4661L46.9817 11.4801C48.212 11.5332 49.383 12.0231 50.2845 12.862C51.186 13.7008 51.759 14.8336 51.9004 16.0568L51.9189 16.266L51.929 16.4649L51.9348 16.6613V16.852L51.9233 17.0555L51.9036 17.2506C51.8871 17.3988 51.8621 17.5458 51.8286 17.6911C51.5888 18.7521 51.0374 19.7172 50.2452 20.4626C49.4676 21.192 48.4752 21.6508 47.4158 21.7708C47.2985 21.7835 47.184 21.7935 47.0726 21.8007C46.9188 21.8108 46.7662 21.8191 46.6136 21.8305H46.5927C46.4344 21.8178 46.2793 21.8051 46.0911 21.7854C45.9144 21.7657 45.7364 21.7415 45.5559 21.7066C45.0169 21.6007 44.5005 21.4013 44.0303 21.1173C43.5808 20.8377 43.1663 20.5052 42.7959 20.127L42.6547 19.9884V19.9515C42.5867 19.8695 42.5219 19.7875 42.4596 19.703C42.3582 19.5682 42.264 19.4281 42.1774 19.2835L42.0826 19.1124L42.0006 18.9542L41.8494 18.6236C41.7847 18.4748 41.7287 18.3225 41.6815 18.1672C41.6324 18.0185 41.5941 17.8664 41.5671 17.7121L41.536 17.5366L41.5093 17.346L41.4839 17.1597C41.4769 17.0847 41.4667 17.0084 41.461 16.9353C41.4495 16.8025 41.4438 16.7306 41.4438 16.6486C41.4495 16.4764 41.4648 16.3181 41.4807 16.1458L41.5061 15.9494L41.536 15.753C41.5469 15.6687 41.5635 15.5852 41.5855 15.5032C41.632 15.3633 41.6618 15.2686 41.6898 15.1783C41.7744 14.8751 41.8858 14.5801 42.0229 14.2967L42.2263 13.8759L42.2562 13.8898C42.3045 13.8161 42.3509 13.7475 42.4005 13.6782L42.396 13.6737ZM62.7238 5.82712L62.5738 5.83539L62.4467 5.84683L62.3081 5.8678L62.1683 5.8945L62.0411 5.92565L61.9058 5.96633L61.7971 6.00447L61.6559 6.06231L61.553 6.10745L61.4258 6.17101L61.2987 6.24602L61.2052 6.30515L61.0851 6.39413L60.9917 6.46787L60.876 6.56958C60.7957 6.64464 60.7193 6.72377 60.6471 6.80667C60.5804 6.88438 60.5182 6.96588 60.4609 7.05076C60.4022 7.1383 60.3489 7.22938 60.3013 7.32347C60.2492 7.42518 60.1996 7.53261 60.1532 7.6413L60.1036 7.77543L60.0585 7.91781L60.0261 8.03477L60.0019 8.15365C59.988 8.23692 59.9778 8.3132 59.9695 8.39774L59.9498 8.70985C59.9358 8.94123 59.9142 9.16497 59.8863 9.38237C59.8559 9.60488 59.8115 9.82527 59.7534 10.0422C59.6921 10.2662 59.6152 10.4856 59.5233 10.6988C59.427 10.921 59.3137 11.1354 59.1845 11.3402L59.1565 11.3853L59.1495 11.3923C59.0688 11.5138 58.9868 11.6294 58.9035 11.747L58.8044 11.8742L58.7014 12.0013L58.5882 12.1284L58.4668 12.2556L58.3454 12.3757C58.2507 12.4704 58.1267 12.5734 58.0136 12.6681C57.9259 12.7387 57.8426 12.7997 57.7523 12.8645C57.6322 12.9465 57.5051 13.0342 57.3792 13.1061C56.8868 13.3946 56.3497 13.5989 55.7901 13.7106C54.7394 13.9183 53.6503 13.8006 52.6683 13.3731C51.6722 12.9478 50.8389 12.2141 50.2909 11.2798C50.0043 10.7871 49.802 10.25 49.6921 9.69068V9.68367C49.6623 9.52412 49.6413 9.36586 49.6241 9.21203C49.607 9.04676 49.5987 8.90818 49.5885 8.77278L49.5631 8.43652C49.5548 8.34626 49.5421 8.24581 49.5262 8.13394L49.5034 8.02525L49.4767 7.91209C49.4432 7.79047 49.4031 7.67079 49.3565 7.55358C49.3124 7.4441 49.2606 7.33789 49.2014 7.23575C49.1432 7.1328 49.0775 7.03423 49.005 6.94081C48.9257 6.83876 48.8408 6.74113 48.7507 6.64839L48.6503 6.55369L48.5302 6.44944L48.4437 6.38015L48.3096 6.28862L48.2053 6.22059L48.0737 6.14685L47.9778 6.09728L47.8424 6.03943L47.7038 5.98604L47.5709 5.94218L47.4381 5.90531L47.3224 5.87988L47.1628 5.85319L47.0529 5.8392L46.8901 5.82775H46.7586H46.5679L46.4166 5.83602L46.2895 5.84873L46.1496 5.86844L46.0123 5.89514L45.8852 5.92629L45.7498 5.96697L45.6411 6.00384L45.4987 6.06295L45.397 6.10809L45.2698 6.17165L45.1427 6.24666L45.0512 6.31023L44.931 6.39795L44.8376 6.47169L44.7219 6.57466C44.6413 6.64936 44.5649 6.72853 44.4931 6.81177C44.4256 6.88886 44.3634 6.97042 44.3068 7.05587C44.2491 7.14381 44.1963 7.23484 44.1485 7.32856C44.0964 7.43026 44.0471 7.53768 44.0004 7.65083L43.9509 7.78369L43.9044 7.92798L43.8733 8.04367L43.8479 8.16255C43.8352 8.24582 43.825 8.32338 43.8167 8.40665L43.7957 8.72002C43.783 8.95013 43.7621 9.17324 43.7322 9.39127C43.7008 9.61372 43.656 9.83406 43.5981 10.0511C43.5376 10.2753 43.4607 10.4948 43.3679 10.7077C43.2727 10.9306 43.1598 11.1455 43.0304 11.3504L43.0024 11.3942L42.9942 11.4025C42.9154 11.5226 42.8334 11.6383 42.7482 11.7559L42.6509 11.8831L42.5479 12.0102L42.4335 12.1373L42.3134 12.2645L42.192 12.3846C42.0973 12.4806 41.9733 12.5823 41.8589 12.677C41.7724 12.7476 41.6892 12.8086 41.5989 12.8734C41.4775 12.9554 41.3516 13.0432 41.2258 13.1163C40.733 13.4037 40.196 13.6075 39.6366 13.7195C38.5859 13.9271 37.4969 13.8094 36.5149 13.382C35.5194 12.9564 34.6862 12.2233 34.1375 11.29C33.8524 10.7966 33.6501 10.2597 33.5387 9.70084V9.6964C33.5088 9.53558 33.4891 9.37856 33.4751 9.22155C33.4612 9.06455 33.4484 8.91898 33.4383 8.78359L33.4129 8.44733C33.4046 8.35833 33.3931 8.25662 33.376 8.14474L33.355 8.03731L33.3283 7.9229C33.2914 7.79577 33.2533 7.6769 33.2082 7.56439C33.1632 7.45528 33.1114 7.34913 33.0531 7.24656C32.994 7.1439 32.9284 7.04516 32.8566 6.95098C32.7768 6.84974 32.692 6.75257 32.6024 6.65984L32.5019 6.56385L32.3831 6.46088L32.2954 6.39159L32.1638 6.29815L32.0563 6.23013L31.9292 6.1564L31.832 6.10682L31.6978 6.04897L31.5593 5.99557L31.4264 5.95298L31.2948 5.91611L31.1779 5.88941L31.0183 5.86272L30.9064 5.84873L30.7456 5.8373H30.7304L30.6808 5.83157L30.5365 5.82458H30.4233L30.2733 5.83285L30.1462 5.84428L30.0063 5.86526L29.869 5.89196L29.7419 5.92311L29.6065 5.96379L29.4965 6.00193L29.3554 6.05977L29.2524 6.1049L29.1253 6.16846L28.9982 6.24348L28.9066 6.30259L28.7865 6.39159L28.6931 6.46533L28.5774 6.56703C28.4971 6.64209 28.4207 6.72122 28.3485 6.80413C28.2818 6.88184 28.2196 6.96334 28.1623 7.04822C28.104 7.13579 28.0511 7.22687 28.004 7.32093C27.9506 7.42264 27.9023 7.53006 27.8559 7.63876L27.8063 7.77289L27.7599 7.91527L27.7275 8.03223L27.7033 8.15111C27.6906 8.23438 27.6805 8.31066 27.6722 8.3952L27.6512 8.70731C27.6372 8.93869 27.6175 9.16243 27.5876 9.37983C27.5555 9.60213 27.5107 9.82244 27.4535 10.0397C27.3935 10.264 27.3165 10.4835 27.2234 10.6963C27.1276 10.9185 27.0147 11.1329 26.8859 11.3377L26.856 11.3828L26.849 11.3898C26.7683 11.5112 26.6882 11.6269 26.603 11.7445L26.5058 11.8716L26.4015 11.9988L26.2884 12.1259L26.1669 12.253L26.0455 12.3732C25.9399 12.4762 25.8292 12.5738 25.7137 12.6656C25.6273 12.7361 25.544 12.7971 25.4537 12.862C25.3323 12.944 25.2065 13.0317 25.0806 13.1035C24.5882 13.392 24.0511 13.5963 23.4914 13.7081C22.4408 13.9157 21.3517 13.798 20.3697 13.3705C19.3741 12.9445 18.541 12.2109 17.9923 11.2773C17.7067 10.7842 17.5048 10.2472 17.3948 9.68814V9.68113C17.3637 9.52158 17.3427 9.3633 17.3268 9.20947C17.3096 9.0442 17.3001 8.90564 17.2899 8.77024L17.2645 8.43398C17.2575 8.34372 17.2448 8.24327 17.2276 8.1314L17.2067 8.0227L17.18 7.90955C17.1461 7.78791 17.1056 7.66823 17.0585 7.55104C17.015 7.44131 16.9631 7.33506 16.9034 7.23321C16.8457 7.12995 16.7801 7.03132 16.707 6.93825C16.6273 6.83651 16.5425 6.73892 16.4528 6.64585L16.3523 6.55115L16.2322 6.4469L16.1445 6.3776L16.0129 6.28606L15.9055 6.21805L15.7783 6.14431L15.6811 6.09474L15.5469 6.03689L15.4084 5.9835L15.2755 5.93964L15.1427 5.90277L15.027 5.87734L14.8661 5.85064L14.7575 5.83666L14.5947 5.82521H14.4631H14.336L14.1733 5.83793L14.0671 5.85064L13.9019 5.88052L13.7887 5.90467L13.6463 5.94409C13.5119 5.98826 13.3799 6.0396 13.2509 6.09791L13.148 6.14878L13.031 6.21233L12.8937 6.30005L12.7793 6.38205L12.6877 6.45262L12.5803 6.54414L12.4773 6.64331L12.3813 6.74374L12.2911 6.85117L12.2193 6.93889L12.1442 7.04632L12.0654 7.16774L11.9949 7.28914L11.944 7.3883L11.8804 7.52815L11.8309 7.65083L11.7883 7.7697L11.7527 7.89238C11.7317 7.97883 11.7145 8.06019 11.6961 8.14664L11.6732 8.30048L11.6618 8.42316L11.6548 8.57V8.6787L11.6618 8.83253L11.6732 8.95267L11.6917 9.08679L11.7171 9.21393L11.7527 9.36648L11.7826 9.46947L11.8309 9.60932L11.883 9.74344L11.9338 9.85912L11.9904 9.96783L12.054 10.0797L12.1328 10.2068L12.2021 10.3041L12.2796 10.4033L12.3712 10.5119C12.4392 10.5825 12.5053 10.6505 12.5746 10.7128C12.64 10.7737 12.7087 10.8307 12.7805 10.8838C12.8556 10.9391 12.9287 10.9881 13.0049 11.0351C13.0812 11.0821 13.1645 11.1266 13.2636 11.1775C13.3755 11.2271 13.481 11.2665 13.5955 11.3046L13.7525 11.3529L13.8554 11.3796L13.9927 11.4076L14.1974 11.4387L14.4364 11.4572L14.6952 11.4712C15.9254 11.5239 17.0965 12.0138 17.9979 12.8527C18.8993 13.6917 19.4718 14.8246 19.6126 16.0479L19.6323 16.2571L19.6425 16.456L19.647 16.6524V16.8431L19.6368 17.0465L19.6158 17.2417C19.6004 17.3899 19.5758 17.537 19.5421 17.6822C19.3023 18.7432 18.7509 19.7083 17.9586 20.4537C17.1805 21.1831 16.1878 21.6419 15.128 21.7619C15.0124 21.7746 14.8979 21.7848 14.7861 21.7918C14.5954 21.8032 14.4047 21.8127 14.214 21.8286L14.0951 21.8439L13.9851 21.8623L13.8682 21.8877L13.7455 21.9189L13.6056 21.9628L13.4321 22.0263L13.2459 22.107C13.1569 22.1535 13.078 22.196 13.0087 22.2386C12.9299 22.2882 12.8549 22.3378 12.7869 22.3886C12.7151 22.4417 12.6463 22.4988 12.5809 22.5596C12.5117 22.6232 12.4436 22.6912 12.375 22.7631L12.2987 22.8533L12.2053 22.9735L12.1417 23.065L12.061 23.1921L11.993 23.3091L11.9421 23.4076L11.8785 23.5487L11.8391 23.6504L11.7883 23.7973L11.7571 23.9047L11.7234 24.0573L11.698 24.18L11.6796 24.3153L11.6681 24.4342L11.6611 24.588V24.698L11.6681 24.8449L11.6796 24.9675L11.6993 25.0991L11.7304 25.2504L11.7571 25.3674L11.794 25.4945L11.8366 25.6159L11.8932 25.757L11.9453 25.8702L11.9987 25.9763L12.075 26.1079L12.1385 26.2083L12.2104 26.3088L12.3076 26.4315L12.3813 26.5192C12.4913 26.6323 12.572 26.7099 12.6947 26.816L12.7812 26.8841L12.9153 26.9788L13.0227 27.0423L13.1397 27.1116L13.2783 27.1796L13.3787 27.2248L13.5058 27.2743L13.6539 27.3227L13.7893 27.3608L13.9165 27.3875L14.0678 27.4142L14.1765 27.4282L14.3392 27.4396H14.4663H14.5934L14.7562 27.4269L14.8693 27.4129L15.0302 27.385L15.1573 27.3583L15.2742 27.3246L15.4243 27.275L15.5584 27.2241L15.6614 27.179L15.8037 27.1072L15.8997 27.0519L16.037 26.9654L16.1489 26.8866L16.2424 26.8129L16.3453 26.7251L16.4528 26.6222C16.5405 26.5306 16.6206 26.4384 16.7013 26.3399C16.7649 26.2554 16.8202 26.1734 16.8678 26.0971C16.9141 26.0222 16.9565 25.9449 16.995 25.8657C17.0342 25.7865 17.0686 25.705 17.098 25.6216C17.1304 25.5314 17.1615 25.4436 17.1844 25.3547L17.2143 25.2275C17.234 25.1118 17.2512 24.9961 17.2626 24.8817C17.274 24.7673 17.2836 24.6274 17.2937 24.4901C17.3039 24.3528 17.3147 24.2162 17.3319 24.0522C17.349 23.8882 17.3687 23.7401 17.3999 23.5792V23.5735C17.6391 22.386 18.296 21.3235 19.2516 20.5789C20.2145 19.8229 21.4107 19.4258 22.6346 19.4557H22.6447C23.0422 19.4723 23.4367 19.532 23.8213 19.6337C24.2044 19.7386 24.5745 19.8859 24.9249 20.0729C24.9814 20.0986 25.0359 20.1288 25.0876 20.1632C25.6572 20.5003 26.1608 20.9382 26.5738 21.4555C26.9717 21.9604 27.2659 22.5389 27.4395 23.1578C27.4941 23.351 27.538 23.5471 27.5711 23.7451C27.608 23.9511 27.6347 24.1577 27.6474 24.3567C27.6474 24.5149 27.6684 24.7012 27.6785 24.8652L27.6887 24.9764L27.7116 25.1175L27.7313 25.2135L27.7739 25.3686L27.8133 25.4913L27.8629 25.6242C27.9093 25.7373 27.9589 25.846 28.011 25.9477C28.0586 26.0413 28.1119 26.132 28.1706 26.2191C28.2266 26.3042 28.2884 26.3853 28.3555 26.462C28.4311 26.5513 28.5117 26.6362 28.5971 26.7162L28.6905 26.7982L28.8005 26.8872L28.9009 26.9578L29.0281 27.0411L29.1399 27.1046L29.2416 27.158L29.377 27.2216L29.4997 27.2724L29.6141 27.3119L29.7413 27.35L29.8868 27.3869L30.014 27.411L30.1551 27.432L30.2765 27.4434L30.4303 27.4517H30.5575H30.621H30.7482L30.9109 27.439L31.024 27.4263L31.1849 27.3964L31.312 27.3697L31.4309 27.3373L31.579 27.2864L31.7131 27.2356L31.8161 27.1904L31.9585 27.1186L32.0544 27.0633L32.1917 26.9769L32.3036 26.898L32.3983 26.8262L32.5 26.7372L32.6075 26.6342C32.6952 26.5408 32.7753 26.4505 32.8573 26.352C32.9208 26.2675 32.9742 26.1867 33.0226 26.1092C33.0721 26.0259 33.116 25.9484 33.1497 25.8759C33.1883 25.7964 33.2227 25.7149 33.2527 25.6318C33.2851 25.5428 33.3162 25.4551 33.3404 25.3648L33.3683 25.2377C33.3893 25.1233 33.4052 25.0063 33.4167 24.89C33.4281 24.7737 33.4376 24.6357 33.4491 24.5003C33.4605 24.3649 33.4688 24.2276 33.486 24.0624C33.5031 23.9073 33.5228 23.7502 33.554 23.5907V23.585C33.7934 22.3967 34.4511 21.3337 35.4076 20.5891C36.37 19.8331 37.5658 19.4359 38.7893 19.4659H38.7994C39.1973 19.4826 39.5923 19.5423 39.9773 19.6439C40.3594 19.7497 40.7288 19.897 41.0789 20.0831C41.1352 20.1093 41.1896 20.1395 41.2417 20.1734C41.8117 20.5112 42.3157 20.9497 42.7291 21.4676C43.1269 21.9723 43.4208 22.5509 43.5936 23.1699C43.6479 23.3628 43.6923 23.5584 43.7265 23.756C43.7621 23.9625 43.7856 24.1672 43.8027 24.3662C43.8027 24.527 43.8224 24.712 43.8326 24.8747L43.8441 24.9847L43.865 25.1258L43.886 25.2218L43.9267 25.3769L43.9661 25.4996L44.0157 25.6337C44.0623 25.7469 44.1117 25.8543 44.1638 25.956C44.2117 26.0494 44.265 26.1401 44.3233 26.2274C44.379 26.3132 44.4408 26.3948 44.5083 26.4715C44.5844 26.559 44.665 26.6424 44.7499 26.7213L44.8433 26.8033L44.9533 26.8923L45.0537 26.9642L45.1809 27.0462L45.294 27.1097L45.3944 27.1631L45.5317 27.2267L45.6589 27.2763L45.772 27.3157L45.8992 27.3538L46.0434 27.3907L46.1706 27.4148L46.3117 27.4358L46.4331 27.4472L46.5882 27.4555H46.6969L46.8469 27.4485H46.8838H46.9067L47.0675 27.4358L47.1806 27.4218L47.3415 27.3939L47.4686 27.3671L47.5875 27.3335L47.7375 27.2839L47.8703 27.233L47.9746 27.1879L48.1157 27.1161L48.2117 27.0608L48.349 26.9743L48.4609 26.8955L48.5556 26.8217L48.6573 26.734L48.7647 26.6311C48.8524 26.5395 48.9344 26.4474 49.0145 26.3488C49.0781 26.2643 49.1315 26.1823 49.1785 26.106C49.2258 26.0317 49.2683 25.9544 49.3057 25.8746C49.3438 25.7939 49.3794 25.7151 49.4099 25.6305C49.4404 25.546 49.4735 25.4525 49.4945 25.3636L49.5256 25.2364C49.5453 25.1207 49.5612 25.005 49.572 24.8906C49.5828 24.7762 49.5949 24.6363 49.6044 24.499C49.614 24.3617 49.6241 24.2251 49.6413 24.0611C49.6585 23.8971 49.6794 23.749 49.7093 23.5882V23.5824C49.9491 22.3947 50.6068 21.3322 51.5629 20.5878C52.5255 19.832 53.7211 19.4349 54.9446 19.4646H54.9561C55.3531 19.4811 55.7472 19.5408 56.1314 19.6426C56.5144 19.7475 56.8845 19.8948 57.2349 20.0818C57.2915 20.1075 57.3459 20.1377 57.3976 20.1721C57.9676 20.5092 58.4716 20.9471 58.8851 21.4644C59.2826 21.9693 59.5764 22.5478 59.7496 23.1667C59.8039 23.3601 59.8483 23.5561 59.8824 23.7541C59.918 23.96 59.946 24.1666 59.9574 24.3656C59.9574 24.5238 59.9784 24.7101 59.9886 24.8741L60 24.9853L60.021 25.1264L60.042 25.2224L60.0846 25.3775L60.1227 25.5002L60.1723 25.6331C60.2187 25.7462 60.2683 25.8549 60.3204 25.9566C60.3686 26.0499 60.4218 26.1406 60.48 26.228C60.5369 26.3128 60.5991 26.3939 60.6662 26.4709C60.7413 26.5602 60.8215 26.6451 60.9065 26.7251L61.0012 26.8071L61.1099 26.8961L61.2103 26.9667L61.3375 27.05L61.4506 27.1135L61.5523 27.1669L61.6877 27.2305L61.8148 27.2813L61.928 27.3207L62.0551 27.3589L62.1994 27.3958L62.3266 27.4199L62.4677 27.4409L62.5878 27.4523L62.7416 27.4606H62.8516L63.0016 27.4536L63.1218 27.4422L63.2629 27.4225L63.39 27.3983L63.5438 27.3614C63.7591 27.3015 63.9671 27.2181 64.1643 27.1129L64.2615 27.0563L64.3785 26.98L64.5012 26.8936L64.5901 26.8243L64.6919 26.7366L64.791 26.6419L64.894 26.5344L64.976 26.4353L65.0605 26.3291L65.1425 26.2134L65.2201 26.092L65.2881 25.9731L65.339 25.8702L65.3955 25.743L65.4546 25.593L65.4941 25.4741C65.5182 25.3852 65.5405 25.3006 65.5621 25.2084L65.5862 25.0616L65.6015 24.9472L65.6142 24.7864L65.6186 24.6592V24.5321L65.6072 24.3948L65.5888 24.2378L65.5691 24.1151L65.5392 23.9765L65.5023 23.8392L65.4597 23.7121L65.4114 23.585L65.365 23.4763L65.2957 23.3352L65.2392 23.2334L65.1673 23.119L65.0853 23.0002L64.9951 22.8813L64.9245 22.7967L64.8184 22.6836L64.7211 22.5902L64.6168 22.4986L64.5139 22.4141L64.4179 22.3435L64.2272 22.2278C64.1763 22.1982 64.1185 22.167 64.0536 22.1344C63.9983 22.1045 63.9418 22.0791 63.8839 22.0537C63.8261 22.0282 63.7752 22.0098 63.7129 21.9901L63.5578 21.945L63.4351 21.9138L63.336 21.8941L63.2089 21.8744L62.9139 21.8394L62.7683 21.828C62.6088 21.8153 62.4505 21.8026 62.2655 21.7816C62.0888 21.7632 61.9121 21.7377 61.7303 21.704C61.1913 21.5982 60.6749 21.3988 60.2047 21.1148C59.7561 20.8343 59.3418 20.5024 58.9703 20.1257L58.8291 19.9858V19.9477C58.7656 19.867 58.6963 19.785 58.634 19.7004C58.538 19.5733 58.4433 19.4335 58.3518 19.2796L58.257 19.1099L58.1763 18.9504L58.0225 18.6211C57.9594 18.472 57.9043 18.3196 57.8572 18.1647C57.8074 18.0161 57.7687 17.8639 57.7415 17.7095L57.7104 17.5341L57.6824 17.3434L57.6595 17.1527C57.6513 17.079 57.6411 17.0027 57.6354 16.9296C57.6239 16.7967 57.6182 16.7249 57.6182 16.6429C57.6252 16.4706 57.6379 16.3111 57.6563 16.1401L57.6805 15.9449L57.7104 15.7485C57.7216 15.6643 57.7382 15.5809 57.76 15.4987C57.8064 15.3576 57.8362 15.2629 57.8629 15.1726C57.9486 14.8695 58.0607 14.5745 58.1979 14.291L58.4013 13.8701L58.4312 13.8841C58.4795 13.8104 58.5259 13.7418 58.5755 13.6725C58.6543 13.5638 58.7351 13.4576 58.8298 13.3419V13.3012L58.9741 13.1614C59.3443 12.7847 59.7583 12.4537 60.2073 12.1755C60.6762 11.8991 61.1873 11.7016 61.7201 11.5907L61.7303 11.5862C61.9 11.5538 62.0666 11.5309 62.2318 11.5112C62.4098 11.4915 62.5554 11.4788 62.701 11.4673L63.0525 11.4375L63.1879 11.419L63.3379 11.3949L63.4339 11.3752L63.5566 11.344L63.7021 11.3002C63.76 11.2805 63.8191 11.2563 63.8827 11.2296C63.9412 11.2067 63.9982 11.1804 64.0536 11.1508C64.1172 11.1196 64.1725 11.0872 64.2215 11.0618L64.3937 10.9575L64.5107 10.873C64.5812 10.8152 64.6435 10.7611 64.7116 10.7007L64.8107 10.606L64.9112 10.5018L64.9849 10.3874L65.0554 10.2971L65.1317 10.1852L65.2093 10.0625L65.2798 9.93541L65.3307 9.83242L65.3943 9.68685L65.4407 9.55973L65.4775 9.44658L65.5169 9.29657L65.5449 9.16943L65.5646 9.04231L65.583 8.88529L65.5932 8.74671V8.61959V8.49245L65.5792 8.33035L65.564 8.21594C65.5405 8.078 65.51 7.94138 65.4724 7.80658L65.4318 7.68771L65.3739 7.53641L65.3256 7.42898L65.262 7.29614L65.1915 7.17346L65.1177 7.05587L65.0542 6.96242L64.9652 6.84927L64.8787 6.74884L64.7758 6.64267L64.6766 6.54668L64.5736 6.4577L64.4802 6.38587L64.3728 6.30831L64.2456 6.22759L64.1185 6.15704L64.0225 6.10745L63.8801 6.04389L63.7759 6.0013L63.6316 5.95171L63.5229 5.9193L63.3678 5.8837L63.2362 5.85827L63.1021 5.83984L62.9794 5.82712L62.8338 5.82013L62.7238 5.82712Z" fill="white"/>
    <path d="M54.6231 21.8296L54.496 21.8398L54.3644 21.8569L54.2246 21.8824L54.0872 21.9122L53.9601 21.9478C53.8266 21.9913 53.6955 22.0418 53.5673 22.0991L53.4484 22.1627L53.3314 22.2262L53.217 22.2981L53.1052 22.3769L52.9977 22.4614L52.8973 22.546C52.8223 22.621 52.7574 22.6833 52.6856 22.7608L52.6011 22.86L52.5178 22.9674L52.4415 23.0748L52.371 23.1861L52.3074 23.3037L52.2438 23.4226C52.2012 23.5141 52.1733 23.5878 52.1364 23.6826C52.0995 23.7773 52.083 23.8491 52.0589 23.9425L52.0264 24.0824L52.0023 24.2222L51.9838 24.3494L51.9756 24.4809V24.7651C51.9826 24.8598 51.9896 24.9348 52.0023 25.0295C52.015 25.1242 52.0347 25.2075 52.0557 25.3048L52.0894 25.4319C52.1205 25.5222 52.1485 25.6042 52.1841 25.6932L52.2407 25.8203L52.2985 25.9391L52.3678 26.0593L52.4415 26.175L52.5223 26.2869L52.6055 26.3968L52.6945 26.496L52.8458 26.6543L52.9303 26.7305L53.0206 26.8081L53.1166 26.8818L53.2158 26.9454C53.2534 26.9728 53.2925 26.9983 53.3327 27.0217L53.4516 27.0897L53.5743 27.1533L53.697 27.2086L53.8298 27.2594L53.9569 27.3001L54.0885 27.337L54.2239 27.3668L54.3625 27.3923L54.4941 27.4075L54.6212 27.4177H54.9034L55.0363 27.4075C55.131 27.3961 55.2143 27.3821 55.3077 27.3668L55.4406 27.337L55.576 27.2988L55.7031 27.2582L55.8302 27.2098L55.9574 27.152L56.0775 27.0884L56.1932 27.0249L56.3102 26.9498L56.4316 26.8634L56.5333 26.7858L56.642 26.6924C56.7125 26.6218 56.7793 26.557 56.8479 26.4845C56.9045 26.4165 56.9522 26.3574 57.0062 26.2881L57.0825 26.1762C57.1105 26.1368 57.1359 26.0974 57.16 26.0574L57.2281 25.9404L57.2916 25.8133L57.3469 25.6861L57.3991 25.552C57.4442 25.4147 57.4741 25.3035 57.5065 25.1624L57.5294 25.0225L57.5478 24.8897L57.558 24.7625V24.4803L57.5478 24.3475C57.5351 24.2527 57.5224 24.1695 57.5071 24.076C57.5001 24.0404 57.49 23.9928 57.4747 23.9362L57.4435 23.8135L57.3971 23.6762L57.3488 23.5548L57.2923 23.4277L57.2287 23.305C57.2115 23.2694 57.188 23.2287 57.1651 23.1861L57.0901 23.0691L57.0113 22.9592L56.9236 22.8473C56.9026 22.8206 56.8715 22.7837 56.832 22.7411C56.7615 22.6649 56.7049 22.6057 56.6261 22.5352L56.5269 22.4519C56.4962 22.4239 56.4638 22.398 56.4297 22.3744C56.3127 22.2924 56.2091 22.2263 56.082 22.1538L55.9618 22.0947C55.8716 22.054 55.7921 22.0228 55.7006 21.9872C55.659 21.9706 55.6166 21.9564 55.5734 21.9447L55.4463 21.9091L55.309 21.8792L55.1704 21.8537L55.0433 21.8366L54.9117 21.8264L54.6231 21.8296Z" fill="white"/>
    <path d="M22.3184 21.8296L22.1868 21.8398L22.0597 21.8569L21.9199 21.8824L21.7813 21.9122L21.6542 21.9478C21.5203 21.9915 21.3888 22.042 21.2601 22.0991L21.1431 22.1627L21.0274 22.2262L20.913 22.2981L20.8011 22.3769L20.6924 22.4614L20.5932 22.546C20.5182 22.621 20.4534 22.6833 20.3816 22.7608L20.2951 22.86L20.2118 22.9674L20.1356 23.0748L20.0663 23.1861L19.9983 23.3037L19.9391 23.4226C19.8953 23.5141 19.8673 23.5878 19.8317 23.6826C19.7961 23.7773 19.7783 23.8491 19.7529 23.9425L19.7217 24.0824L19.6963 24.2222L19.6811 24.3494L19.6709 24.4809V24.7651C19.6779 24.8598 19.6836 24.9348 19.6963 25.0295C19.709 25.1242 19.73 25.2075 19.7516 25.3048L19.7853 25.4319C19.8152 25.5222 19.8444 25.6042 19.8788 25.6932L19.9353 25.8203L19.9944 25.9391L20.065 26.0593L20.1368 26.175L20.2157 26.2869L20.3002 26.3968L20.3879 26.496L20.5418 26.6543L20.6238 26.7305L20.714 26.8081L20.8113 26.8818L20.9085 26.9454C20.9524 26.9766 20.9931 27.002 21.0274 27.0217L21.1444 27.0897L21.267 27.1533L21.3897 27.2086L21.5238 27.2594L21.651 27.3001L21.7838 27.337L21.918 27.3668L22.0578 27.3923L22.1849 27.4075L22.3165 27.4177H22.5988L22.7316 27.4075C22.8263 27.3961 22.9083 27.3821 23.003 27.3668L23.1359 27.337L23.2713 27.2988L23.3984 27.2582L23.5255 27.2098L23.6527 27.152L23.7741 27.0884L23.8898 27.0249L24.0067 26.9498L24.1269 26.8634L24.2286 26.7858L24.3373 26.6924C24.4091 26.6218 24.4759 26.557 24.5452 26.4845C24.6017 26.4165 24.6494 26.3574 24.7034 26.2881L24.7797 26.1762C24.8064 26.1368 24.8331 26.0974 24.856 26.0574L24.924 25.9404L24.9876 25.8133L25.0429 25.6861L25.095 25.552C25.1389 25.4147 25.17 25.3035 25.2012 25.1624L25.2253 25.0225L25.2425 24.8897L25.2526 24.7625V24.4803L25.2425 24.3475C25.231 24.2527 25.2183 24.1695 25.2018 24.076C25.1961 24.0404 25.1846 23.9928 25.1706 23.9362L25.1382 23.8135L25.0931 23.6762L25.0448 23.5548L24.9869 23.4277L24.9234 23.305C24.9049 23.2694 24.8827 23.2287 24.8554 23.1861L24.7816 23.0691L24.7041 22.9592L24.6151 22.8473C24.5941 22.8206 24.5642 22.7837 24.5248 22.7411C24.4542 22.6649 24.3932 22.6057 24.3189 22.5352L24.2197 22.4519C24.193 22.4278 24.1606 22.4023 24.1224 22.3744C24.0036 22.2924 23.9006 22.2263 23.7747 22.1538L23.6546 22.0947C23.5643 22.054 23.4849 22.0228 23.3921 21.9872C23.3507 21.9702 23.3082 21.956 23.2649 21.9447L23.1378 21.9091L23.0024 21.8792L22.8613 21.8537L22.7342 21.8366L22.6026 21.8264L22.3184 21.8296Z" fill="white"/>
    <path d="M56.0823 32.2141C56.6671 32.1181 57.2506 32.0489 57.8354 31.9643C58.4202 31.8798 59.0165 31.8372 59.5759 31.7425C62.8288 31.3058 65.8748 29.8994 68.3169 27.7066C69.8625 26.3072 71.0978 24.5994 71.9432 22.6934C72.7887 20.7874 73.2254 18.7255 73.2254 16.6404C73.2254 14.5553 72.7887 12.4934 71.9432 10.5874C71.0978 8.6814 69.8625 6.97367 68.3169 5.57418C65.8748 3.3814 62.8288 1.97503 59.5759 1.53836C59.0165 1.4411 58.4145 1.39406 57.8354 1.31524C57.2563 1.23642 56.6671 1.16141 56.0823 1.06542V0.614739C57.2563 0.436754 58.4075 0.275933 59.5994 0.169778C60.8332 0.0641024 62.0753 0.106783 63.2989 0.296908C65.8127 0.7029 68.1941 1.69983 70.2474 3.2057C72.3312 4.75476 74.0233 6.7702 75.1884 9.09065C76.3752 11.4306 76.9936 14.0173 76.9936 16.641C76.9936 19.2647 76.3752 21.8515 75.1884 24.1914C74.0229 26.5116 72.3308 28.527 70.2474 30.0764C68.1941 31.5823 65.8127 32.5792 63.2989 32.9852C62.0751 33.1739 60.8333 33.2166 59.5994 33.1123C58.4069 33.0062 57.2557 32.8453 56.0823 32.6673V32.2141Z" fill="white"/>
    <path d="M22.2807 1.06463C21.0558 1.24833 19.8315 1.38945 18.6053 1.52357L17.6855 1.62083L16.8185 1.74796C16.2452 1.82771 15.6786 1.94945 15.1232 2.11219C12.9343 2.68527 10.9014 3.74083 9.1734 5.20152C7.48393 6.59021 6.12314 8.33597 5.18886 10.3133C4.25458 12.2907 3.77002 14.4504 3.77002 16.6374C3.77002 18.8243 4.25458 20.9841 5.18886 22.9615C6.12314 24.9388 7.48393 26.6846 9.1734 28.0733C10.9017 29.5338 12.9345 30.5897 15.1232 31.1638C15.6786 31.3266 16.2453 31.4483 16.8185 31.5281L17.6855 31.6552L18.6053 31.7525C19.8315 31.8866 21.0565 32.0264 22.2807 32.2114V32.6564C21.0558 32.8401 19.8315 32.9812 18.6053 33.1153L17.6855 33.2126L16.7193 33.2507C16.0679 33.2807 15.4151 33.2642 14.766 33.2011C12.1049 32.9545 9.55126 32.0305 7.34842 30.5174C5.0848 28.9998 3.2366 26.9403 1.97199 24.5263C0.677224 22.0966 0 19.3857 0 16.6326C0 13.8795 0.677224 11.1686 1.97199 8.73898C3.23696 6.32483 5.08507 4.26498 7.34842 2.74658C9.55135 1.23379 12.105 0.31029 14.766 0.0640912C15.4151 0.00105339 16.0679 -0.0155082 16.7193 0.0145174L17.6855 0.0526556L18.6053 0.149912C19.8315 0.284036 21.0565 0.423882 22.2807 0.60886V1.06463Z" fill="white"/>
</svg>
