<svg width="17" height="16" viewBox="0 0 17 16" fill="none" xmlns="http://www.w3.org/2000/svg">
    <path d="M4.24259 4.34868C3.9497 4.61156 3.9497 5.03778 4.24259 5.30066L7.33618 8.07726C7.385 8.12108 7.385 8.19211 7.33618 8.23592L4.24259 11.0125C3.9497 11.2754 3.9497 11.7016 4.24259 11.9645C4.53548 12.2274 5.01036 12.2274 5.30325 11.9645L8.39684 9.1879C8.44566 9.14409 8.5248 9.14409 8.57362 9.1879L11.6672 11.9645C11.9601 12.2274 12.435 12.2274 12.7279 11.9645C13.0208 11.7016 13.0208 11.2754 12.7279 11.0125L9.63428 8.23592C9.58546 8.19211 9.58546 8.12108 9.63428 8.07726L12.7279 5.30066C13.0208 5.03778 13.0208 4.61156 12.7279 4.34868C12.435 4.0858 11.9601 4.0858 11.6672 4.34868L8.57362 7.12528C8.5248 7.1691 8.44566 7.1691 8.39684 7.12528L5.30325 4.34868C5.01036 4.0858 4.53548 4.0858 4.24259 4.34868Z" fill="#02272F"/>
</svg>
