<svg width="27" height="24" viewBox="0 0 27 24" fill="none" xmlns="http://www.w3.org/2000/svg">
    <rect x="8.36414" y="7.81805" width="9.40889" height="12.5452" fill="#5F0808"/>
    <path d="M13.0538 23.4984C9.99787 23.4984 6.94277 23.5034 3.88685 23.4959C2.03627 23.4917 0.424787 22.1618 0.067772 20.3342C-0.11483 19.3987 0.078417 18.5241 0.564809 17.7045C3.05737 13.5082 5.54337 9.30679 8.03183 5.10793C8.52723 4.27166 9.02181 3.43456 9.51803 2.59829C11.1745 -0.194003 14.9502 -0.201507 16.6059 2.58828C19.5931 7.62258 22.5614 12.6677 25.5632 17.692C27.0363 20.1583 25.492 22.9798 22.8905 23.4342C22.6302 23.4792 22.3624 23.4942 22.0979 23.495C19.0829 23.5 16.0688 23.4984 13.0538 23.4984ZM14.2452 11.4154C14.2452 10.6358 14.2485 9.85708 14.2444 9.0775C14.2411 8.31461 13.7408 7.77432 13.0522 7.78099C12.3774 7.78766 11.8869 8.32461 11.8853 9.07167C11.882 10.62 11.882 12.1675 11.8853 13.7158C11.8869 14.4837 12.3807 15.0131 13.0775 15.0073C13.7596 15.0023 14.2411 14.4753 14.2444 13.7208C14.2485 12.9529 14.2452 12.1841 14.2452 11.4154ZM13.0554 16.2529C12.4077 16.2563 11.8886 16.7815 11.8853 17.4369C11.882 18.1031 12.4126 18.6375 13.0734 18.6333C13.7203 18.63 14.2395 18.1039 14.2428 17.4485C14.2477 16.7815 13.7187 16.2496 13.0554 16.2529Z" fill="#F86458"/>
</svg>
