<svg width="31" height="27" viewBox="0 0 31 27" fill="none" xmlns="http://www.w3.org/2000/svg">
    <path d="M15.324 26.9981C11.7366 26.9981 8.15021 27.004 4.56283 26.9951C2.3904 26.9903 0.498663 25.4291 0.0795585 23.2836C-0.1348 22.1855 0.0920547 21.1587 0.663037 20.1966C3.58908 15.2704 6.50743 10.3384 9.42867 5.40931C10.0102 4.4276 10.5908 3.44492 11.1733 2.46321C13.1179 -0.814699 17.5503 -0.823508 19.4939 2.45146C23.0006 8.36129 26.4851 14.2838 30.009 20.1819C31.7383 23.0771 29.9254 26.3893 26.8715 26.9227C26.5658 26.9756 26.2515 26.9932 25.941 26.9942C22.4017 27 18.8633 26.9981 15.324 26.9981ZM16.7226 12.8137C16.7226 11.8986 16.7265 10.9844 16.7217 10.0692C16.7178 9.17367 16.1305 8.53942 15.3221 8.54725C14.53 8.55508 13.9542 9.18541 13.9523 10.0624C13.9485 11.88 13.9485 13.6966 13.9523 15.5142C13.9542 16.4156 14.5339 17.0371 15.3519 17.0303C16.1526 17.0244 16.7178 16.4058 16.7217 15.52C16.7265 14.6186 16.7226 13.7161 16.7226 12.8137ZM15.3259 18.4926C14.5656 18.4965 13.9562 19.1131 13.9523 19.8824C13.9485 20.6645 14.5714 21.2918 15.3471 21.2869C16.1065 21.283 16.7159 20.6654 16.7198 19.8961C16.7255 19.1131 16.1046 18.4886 15.3259 18.4926Z" fill="#61E4A3"/>
    <path d="M8.5 19L13.5 7.5H17.5L21 21L11.5 23L8.5 19Z" fill="#61E4A3"/>
    <rect x="14" y="12.3333" width="2.77778" height="9.44444" rx="1.38889" fill="#013646"/>
    <circle cx="15.5" cy="9.5" r="1.5" fill="#013646"/>
</svg>
