<svg width="24" height="24" viewBox="0 0 24 24" fill="none" xmlns="http://www.w3.org/2000/svg">
<path d="M1.6206 1.64683C1.6206 2.37594 1.6228 3.09769 1.61913 3.82018C1.6184 3.95615 1.61179 4.09727 1.57801 4.22736C1.48622 4.57795 1.12419 4.83225 0.773177 4.81021C0.394994 4.78669 0.0388413 4.49784 0.0307636 4.1252C0.0109365 3.19177 -0.00815623 2.2554 0.046919 1.32491C0.0865731 0.657543 0.707821 0.0651451 1.38121 0.0306008C2.28518 -0.0157032 3.19355 -0.000268529 4.09899 0.0173711C4.48965 0.0247209 4.78853 0.371634 4.81496 0.760441C4.8392 1.12352 4.57704 1.48661 4.2106 1.57627C4.08797 1.60641 3.95726 1.61155 3.83022 1.61229C3.12526 1.61743 2.42029 1.6167 1.71533 1.61964C1.69771 1.61964 1.68082 1.62919 1.6206 1.64683Z" fill="white"/>
<path d="M22.3811 1.61427C21.5961 1.61427 20.8463 1.63338 20.0988 1.60251C19.8711 1.59295 19.6148 1.49299 19.4327 1.35408C19.1845 1.16445 19.1221 0.863844 19.2315 0.55662C19.3416 0.246455 19.5605 0.0237538 19.8931 0.0178739C20.7993 0.000969226 21.7069 -0.0166705 22.6117 0.0296337C23.3181 0.0656481 23.9327 0.687447 23.9672 1.39745C24.0113 2.29266 23.9951 3.19228 23.9775 4.0897C23.9694 4.48366 23.6316 4.77986 23.2388 4.80999C22.8679 4.83866 22.4993 4.56451 22.4134 4.18378C22.3877 4.06912 22.3833 3.94785 22.3825 3.82952C22.3796 3.10703 22.3811 2.3838 22.3811 1.61427Z" fill="white"/>
<path d="M1.61819 22.3872C2.40907 22.3872 3.15883 22.3695 3.90712 22.3982C4.12742 22.4063 4.37636 22.4989 4.55186 22.6319C4.81182 22.8282 4.87791 23.1347 4.76482 23.4514C4.65393 23.7616 4.4329 23.9784 4.09878 23.9836C3.19261 23.9975 2.28497 24.0159 1.381 23.9711C0.690729 23.9365 0.069482 23.3162 0.0349683 22.6246C-0.0112948 21.7198 0.00412624 20.8114 0.0217503 19.9051C0.0290936 19.5178 0.383043 19.2135 0.767834 19.1907C1.14235 19.1679 1.50437 19.4428 1.58735 19.825C1.61232 19.9397 1.61599 20.0609 1.61673 20.1793C1.61966 20.901 1.61819 21.6235 1.61819 22.3872Z" fill="white"/>
<path d="M22.382 22.3875C22.382 21.6047 22.3842 20.8639 22.3813 20.123C22.3806 19.8459 22.4386 19.5953 22.6574 19.4057C22.8895 19.2043 23.1538 19.1315 23.4476 19.2388C23.745 19.3476 23.9689 19.5578 23.9741 19.879C23.9895 20.8124 24.0115 21.7488 23.9557 22.68C23.9161 23.3467 23.2875 23.9398 22.6185 23.9714C21.7145 24.014 20.8062 24.0016 19.9007 23.9824C19.5108 23.9744 19.209 23.6216 19.1877 23.2372C19.1664 22.8608 19.4418 22.5 19.8229 22.4184C19.9382 22.3941 20.0586 22.3897 20.1768 22.389C20.8979 22.386 21.6198 22.3875 22.382 22.3875Z" fill="white"/>
<path d="M4.81525 9.58324C4.81525 8.80489 4.81525 8.04491 4.81525 7.28494C4.81525 6.74399 4.81304 6.20303 4.81598 5.66208C4.81892 5.13289 5.1266 4.81464 5.64725 4.81464C9.88216 4.81244 14.1163 4.81244 18.3512 4.81464C18.8388 4.81464 19.1766 5.11819 19.1796 5.57976C19.1876 6.88216 19.1818 8.18383 19.181 9.48623C19.181 9.51269 19.1715 9.53914 19.1634 9.58398C14.3946 9.58324 9.62514 9.58324 4.81525 9.58324Z" fill="white"/>
<path d="M4.81445 14.4086C9.61773 14.4086 14.3806 14.4086 19.1641 14.4086C19.1707 14.4961 19.1817 14.5747 19.1824 14.6541C19.1839 15.8646 19.1839 17.0752 19.1832 18.2857C19.1824 18.8987 18.8887 19.1883 18.2675 19.1883C14.0876 19.189 9.90853 19.189 5.7287 19.1883C5.10966 19.1883 4.81592 18.8972 4.81592 18.2835C4.81445 17.0825 4.81592 15.8808 4.81592 14.6798C4.81445 14.5983 4.81445 14.5167 4.81445 14.4086Z" fill="white"/>
<path d="M22.3658 12.7843C15.4425 12.7843 8.5456 12.7843 1.6333 12.7843C1.6333 12.261 1.6333 11.7516 1.6333 11.2231C8.54193 11.2231 15.4469 11.2231 22.3658 11.2231C22.3658 11.7421 22.3658 12.2514 22.3658 12.7843Z" fill="white"/>
</svg>
