<svg width="96" height="96" viewBox="0 0 96 96" fill="none" xmlns="http://www.w3.org/2000/svg">
    <circle cx="48" cy="48" r="48" fill="#F0EFFE"/>
    <path d="M22.1551 30.8928L79.9968 30.8931L79.9989 67.8927C79.9989 68.9973 79.1035 69.8928 77.9989 69.8928H22.1551V30.8928Z" fill="white"/>
    <path d="M22.1551 30.8928L79.9968 30.8931L75.4161 26.7389C75.0482 26.4053 74.5692 26.2205 74.0725 26.2205H17.0005L22.1551 30.8928Z" fill="white"/>
    <path d="M22.1525 31.7791C22.1525 31.2149 21.9141 30.6769 21.4961 30.2978L17.0005 26.2205L17 64.334C17 64.8985 17.2386 65.4368 17.6569 65.8159L22.1551 69.8928L22.1525 31.7791Z" fill="white"/>
    <path d="M22.1551 30.8928L79.9968 30.8931M22.1551 30.8928V69.8928M22.1551 30.8928L17.0005 26.2205M79.9968 30.8931L79.9989 67.8927C79.9989 68.9974 79.1035 69.8928 77.9989 69.8928H22.1551M79.9968 30.8931L75.4161 26.7389C75.0482 26.4053 74.5692 26.2205 74.0725 26.2205H17.0005M22.1551 69.8928L17.6569 65.8159C17.2386 65.4368 17 64.8985 17 64.334L17.0005 26.2205M22.1551 69.8928L22.1525 31.7791C22.1525 31.2149 21.9141 30.6769 21.4961 30.2978L17.0005 26.2205" stroke="#02272F" stroke-width="2" stroke-linejoin="round"/>
    <rect x="27" y="36.2205" width="31" height="7" fill="#B3AFF9"/>
    <rect x="27" y="46.2205" width="16" height="3" fill="#B3AFF9"/>
    <rect x="61.0005" y="64.4767" width="13.5837" height="1.23488" fill="#02272F"/>
    <rect x="61.0005" y="50.893" width="1.23488" height="13.5837" fill="#02272F"/>
    <rect x="62.2354" y="52.1279" width="1.23488" height="1.23488" fill="#02272F"/>
    <rect x="63.4702" y="50.8929" width="1.23488" height="1.23488" fill="#02272F"/>
    <rect x="64.7051" y="52.1279" width="1.23488" height="1.23488" fill="#02272F"/>
    <rect x="65.9399" y="53.3627" width="1.23488" height="1.23488" fill="#02272F"/>
    <rect x="72.1147" y="52.1279" width="1.23488" height="1.23488" fill="#02272F"/>
    <rect x="73.3496" y="52.1279" width="1.23488" height="1.23488" fill="#02272F"/>
    <rect x="72.1147" y="50.8929" width="1.23488" height="1.23488" fill="#02272F"/>
    <rect x="73.3496" y="53.3627" width="1.23488" height="1.23488" fill="#02272F"/>
    <rect x="62.2354" y="54.5976" width="1.23488" height="1.23488" fill="#02272F"/>
    <rect x="63.4702" y="59.5372" width="1.23488" height="1.23488" fill="#02272F"/>
    <rect x="68.4102" y="59.5372" width="6.17442" height="1.23488" fill="#02272F"/>
    <rect x="65.9399" y="58.3022" width="1.23488" height="3.70465" fill="#02272F"/>
    <rect x="73.3496" y="60.772" width="1.23488" height="1.23488" fill="#02272F"/>
    <rect x="69.645" y="58.3022" width="1.23488" height="1.23488" fill="#02272F"/>
    <rect x="69.645" y="52.1279" width="1.23488" height="3.70465" fill="#02272F"/>
    <rect x="69.645" y="55.8325" width="3.70465" height="1.23488" fill="#02272F"/>
    <rect x="68.4102" y="55.8325" width="1.23488" height="3.70465" fill="#02272F"/>
    <rect x="72.1147" y="58.3022" width="1.23488" height="1.23488" fill="#02272F"/>
    <rect x="68.4102" y="50.8929" width="1.23488" height="3.70465" fill="#02272F"/>
    <rect x="64.7051" y="62.0069" width="7.4093" height="1.23488" fill="#02272F"/>
    <rect x="62.2354" y="62.0069" width="1.23488" height="1.23488" fill="#02272F"/>
    <rect x="62.2354" y="63.2418" width="1.23488" height="1.23488" fill="#02272F"/>
    <rect x="63.4702" y="63.2418" width="1.23488" height="1.23488" fill="#02272F"/>
    <rect x="63.4702" y="55.8325" width="2.46977" height="2.46977" fill="#02272F"/>
</svg>
