<svg width="96" height="96" viewBox="0 0 96 96" fill="none" xmlns="http://www.w3.org/2000/svg">
    <circle cx="48" cy="48" r="48" fill="#F0EFFE"/>
    <g clip-path="url(#clip0_1627:14069)">
        <rect x="28.5107" y="14.8928" width="39.9787" height="67.1071" rx="3.40244" fill="#F4F6F6"/>
        <g opacity="0.6">
            <rect x="40.4248" y="51.5031" width="17.2276" height="1.56614" fill="#02272F"/>
            <rect x="40.4243" y="34.2756" width="1.56614" height="17.2276" fill="#02272F"/>
            <rect x="41.9917" y="35.8416" width="1.56614" height="1.56614" fill="#02272F"/>
            <rect x="43.5576" y="34.2755" width="1.56614" height="1.56614" fill="#02272F"/>
            <rect x="45.123" y="35.8416" width="1.56614" height="1.56614" fill="#02272F"/>
            <rect x="46.6899" y="37.408" width="1.56614" height="1.56614" fill="#02272F"/>
            <rect x="54.5205" y="35.8416" width="1.56614" height="1.56614" fill="#02272F"/>
            <rect x="56.0864" y="35.8416" width="1.56614" height="1.56614" fill="#02272F"/>
            <rect x="54.5205" y="34.2755" width="1.56614" height="1.56614" fill="#02272F"/>
            <rect x="56.0864" y="37.408" width="1.56614" height="1.56614" fill="#02272F"/>
            <rect x="41.9917" y="38.974" width="1.56614" height="1.56614" fill="#02272F"/>
            <rect x="43.5576" y="45.2383" width="1.56614" height="1.56614" fill="#02272F"/>
            <rect x="49.8223" y="45.2383" width="7.83072" height="1.56614" fill="#02272F"/>
            <rect x="46.6899" y="43.6723" width="1.56614" height="4.69843" fill="#02272F"/>
            <rect x="56.0864" y="46.8047" width="1.56614" height="1.56614" fill="#02272F"/>
            <rect x="51.3882" y="43.6723" width="1.56614" height="1.56614" fill="#02272F"/>
            <rect x="51.3882" y="35.8416" width="1.56614" height="4.69843" fill="#02272F"/>
            <rect x="51.3882" y="40.54" width="4.69843" height="1.56614" fill="#02272F"/>
            <rect x="49.8223" y="40.54" width="1.56614" height="4.69843" fill="#02272F"/>
            <rect x="54.5205" y="43.6723" width="1.56614" height="1.56614" fill="#02272F"/>
            <rect x="49.8223" y="34.2755" width="1.56614" height="4.69843" fill="#02272F"/>
            <rect x="45.123" y="48.3708" width="9.39687" height="1.56614" fill="#02272F"/>
            <rect x="41.9917" y="48.3708" width="1.56614" height="1.56614" fill="#02272F"/>
            <rect x="41.9917" y="49.937" width="1.56614" height="1.56614" fill="#02272F"/>
            <rect x="43.5576" y="49.937" width="1.56614" height="1.56614" fill="#02272F"/>
            <rect x="43.5576" y="40.54" width="3.13229" height="3.13229" fill="#02272F"/>
        </g>
        <rect x="28.5107" y="14.8928" width="39.9787" height="67.1982" fill="white" fill-opacity="0.12"/>
        <path fill-rule="evenodd" clip-rule="evenodd" d="M57.9129 16.8928H65.087C65.8615 16.8928 66.4894 17.5207 66.4894 18.2953V78.5974C66.4894 79.372 65.8615 79.9998 65.087 79.9998H31.9132C31.1386 79.9998 30.5107 79.372 30.5107 78.5974V18.2953C30.5107 17.5207 31.1386 16.8928 31.9132 16.8928H39.3521C39.3514 17.3314 39.3521 17.7705 39.3574 18.744C39.3611 19.4347 39.7975 19.8889 40.4273 19.8889C45.8978 19.8922 51.3672 19.8922 56.8377 19.8889C57.5102 19.8889 57.9077 19.4127 57.9114 18.6209C57.9141 18.0543 57.9135 17.4877 57.9129 16.9211C57.9129 16.9116 57.9129 16.9022 57.9129 16.8928ZM28.5107 18.2953C28.5107 16.4162 30.0341 14.8928 31.9132 14.8928H65.087C66.9661 14.8928 68.4894 16.4161 68.4894 18.2953V78.5974C68.4894 80.4765 66.9661 81.9998 65.087 81.9998H31.9132C30.0341 81.9998 28.5107 80.4765 28.5107 78.5974V18.2953Z" fill="#1C2228"/>
        <path d="M41.2318 30.5367H38.611C37.7307 30.5367 37.0171 31.2504 37.0171 32.1307V34.6672" stroke="#02272F" stroke-width="2" stroke-linecap="round"/>
        <path d="M60.3667 34.7097L60.3667 32.0889C60.3667 31.2086 59.6531 30.495 58.7728 30.495L56.2363 30.495" stroke="#02272F" stroke-width="2" stroke-linecap="round"/>
        <path d="M56.194 61.726L58.8148 61.726C59.6951 61.726 60.4087 61.0124 60.4087 60.1321L60.4087 57.5956" stroke="#02272F" stroke-width="2" stroke-linecap="round"/>
        <path d="M37.0171 57.5536L37.0171 60.1744C37.0171 61.0547 37.7307 61.7684 38.611 61.7684L41.1475 61.7684" stroke="#02272F" stroke-width="2" stroke-linecap="round"/>
    </g>
    <defs>
        <clipPath id="clip0_1627:14069">
            <rect x="28.5107" y="14.8928" width="39.9787" height="67.1071" rx="3.40244" fill="white"/>
        </clipPath>
    </defs>
</svg>
