<svg width="64" height="64" viewBox="0 0 64 64" fill="none" xmlns="http://www.w3.org/2000/svg">
    <circle cx="32" cy="32" r="32" fill="#CC2A2A"/>
    <path d="M23.5 23.5C22.8787 24.1213 22.8787 25.1287 23.5 25.75L30.0625 32.3125C30.1661 32.4161 30.1661 32.5839 30.0625 32.6875L23.5 39.25C22.8787 39.8713 22.8787 40.8787 23.5 41.5C24.1213 42.1213 25.1287 42.1213 25.75 41.5L32.3125 34.9375C32.4161 34.8339 32.5839 34.8339 32.6875 34.9375L39.25 41.5C39.8713 42.1213 40.8787 42.1213 41.5 41.5C42.1213 40.8787 42.1213 39.8713 41.5 39.25L34.9375 32.6875C34.8339 32.5839 34.8339 32.4161 34.9375 32.3125L41.5 25.75C42.1213 25.1287 42.1213 24.1213 41.5 23.5C40.8787 22.8787 39.8713 22.8787 39.25 23.5L32.6875 30.0625C32.5839 30.1661 32.4161 30.1661 32.3125 30.0625L25.75 23.5C25.1287 22.8787 24.1213 22.8787 23.5 23.5Z" fill="#EDF3F1"/>
</svg>
